<?xml version="1.0" standalone="no"?>
<!DOCTYPE svg PUBLIC "-//W3C//DTD SVG 20010904//EN"
 "http://www.w3.org/TR/2001/REC-SVG-20010904/DTD/svg10.dtd">
<svg version="1.0" xmlns="http://www.w3.org/2000/svg"
 width="1670.950595pt" height="1050.982163pt" viewBox="0 0 1670.950595 1050.982163"
 preserveAspectRatio="xMidYMid meet">

<g transform="translate(-164.000000,1531.982163) scale(0.100000,-0.100000)"
fill="#000000" stroke="none">
<path d="M1662 15304 c-15 -10 -22 -25 -22 -49 0 -29 7 -40 56 -77 238 -182
404 -350 611 -618 144 -187 312 -531 418 -857 54 -165 50 -152 95 -350 35
-154 70 -477 70 -653 0 -141 -24 -419 -44 -505 -3 -11 -12 -56 -22 -100 -9
-44 -34 -147 -55 -230 -58 -232 -62 -312 -17 -336 12 -6 71 -22 132 -35 215
-45 329 -87 556 -206 282 -147 635 -420 840 -649 41 -46 85 -95 98 -109 88
-95 255 -357 326 -513 64 -137 71 -158 151 -407 62 -195 83 -213 215 -186 130
26 382 17 511 -18 239 -66 395 -143 617 -307 116 -86 230 -199 296 -294 27
-38 82 -136 123 -217 70 -138 106 -188 140 -188 7 0 32 17 56 39 233 214 365
271 559 242 169 -26 303 -69 487 -158 257 -124 454 -264 656 -468 154 -156
264 -310 376 -531 105 -208 107 -210 176 -176 44 22 160 34 207 21 18 -5 44
-21 58 -36 24 -26 88 -140 88 -158 0 -4 6 -21 14 -38 20 -48 42 -104 70 -184
14 -40 37 -103 51 -140 73 -202 142 -429 185 -608 17 -71 40 -168 51 -215 12
-47 24 -105 29 -130 4 -25 16 -85 25 -135 26 -147 59 -380 75 -540 31 -300 44
-375 69 -375 26 0 36 49 76 370 9 69 20 152 25 185 5 33 16 107 25 165 40 260
116 634 168 820 104 370 209 669 316 901 59 126 177 163 297 93 74 -43 76 -42
209 211 174 331 440 628 738 823 139 91 362 202 495 246 363 120 553 82 814
-163 36 -33 73 -61 81 -61 33 0 85 61 127 147 110 228 156 302 242 393 287
301 734 510 1092 510 48 0 106 -4 129 -9 129 -28 147 -30 174 -20 55 21 82 70
138 256 67 221 141 382 273 592 262 417 669 790 1105 1015 226 116 409 182
562 201 79 10 156 33 178 52 16 16 18 26 12 78 -3 33 -10 76 -15 95 -148 563
-182 861 -145 1240 21 213 61 436 107 595 11 39 23 84 28 100 4 17 21 71 38
120 189 566 492 1009 931 1361 138 110 151 125 135 152 -24 37 -53 43 -184 37
-69 -3 -150 -10 -180 -15 -30 -5 -101 -16 -157 -25 -233 -34 -310 -47 -353
-55 -25 -6 -92 -19 -150 -30 -129 -25 -204 -41 -380 -85 -36 -9 -76 -19 -90
-22 -151 -32 -570 -165 -790 -250 -338 -130 -758 -335 -1050 -513 -318 -194
-424 -264 -685 -460 -337 -253 -576 -464 -940 -830 -264 -265 -303 -299 -401
-344 l-61 -28 -66 26 c-84 33 -151 35 -198 3 -102 -67 -107 -266 -9 -339 46
-33 43 -48 -48 -268 -175 -425 -469 -864 -807 -1206 -330 -335 -711 -576 -969
-614 -81 -12 -96 -3 -96 58 0 59 -32 209 -54 253 -24 49 -20 56 37 69 81 20
117 42 193 122 91 96 160 233 201 398 25 104 25 433 -1 565 -27 142 -48 223
-61 241 -11 15 -14 15 -41 -2 -37 -24 -47 -34 -119 -119 -33 -38 -68 -78 -77
-89 -37 -41 -206 -284 -248 -355 -60 -104 -106 -206 -145 -323 -18 -55 -37
-104 -43 -110 -6 -6 -19 -5 -38 5 -116 57 -581 57 -672 0 -30 -18 -52 -10 -52
19 0 34 -45 168 -89 262 -51 111 -176 309 -271 430 -83 106 -253 286 -271 286
-40 0 -99 -323 -99 -549 0 -207 36 -368 116 -522 65 -123 195 -242 281 -256
19 -3 37 -12 40 -19 2 -7 -6 -43 -20 -81 -13 -37 -30 -113 -37 -168 -7 -55
-17 -105 -22 -112 -13 -17 -108 -5 -197 24 -69 23 -178 76 -263 130 -21 13
-40 23 -44 23 -15 0 -242 159 -325 229 -425 356 -830 906 -1044 1417 -25 58
-50 133 -57 165 l-12 59 32 37 c98 114 96 244 -3 331 -32 28 -43 32 -96 32
-33 0 -76 -7 -96 -15 -19 -8 -55 -15 -78 -15 -69 0 -137 56 -490 401 -88 86
-194 187 -235 224 -41 38 -95 87 -120 110 -79 72 -292 248 -400 331 -288 219
-469 342 -794 538 -80 49 -93 56 -201 116 -33 18 -76 42 -95 53 -89 51 -404
207 -485 241 -49 21 -110 47 -135 58 -61 26 -78 33 -125 51 -22 8 -64 25 -93
37 -168 68 -596 198 -877 266 -409 100 -592 136 -915 180 -63 8 -144 19 -180
24 -106 15 -222 12 -248 -6z m5101 -2813 c9 -16 17 -36 17 -44 0 -18 -61 -40
-170 -61 -47 -9 -141 -27 -210 -40 -69 -14 -174 -32 -235 -41 -60 -9 -139 -20
-175 -25 -36 -5 -94 -14 -130 -20 -36 -6 -92 -15 -125 -20 -76 -11 -563 -94
-755 -129 -30 -5 -120 -21 -200 -35 -208 -37 -285 -52 -370 -71 -41 -9 -97
-20 -125 -25 -27 -5 -138 -27 -245 -50 -107 -23 -224 -48 -260 -55 -82 -16
-148 -30 -500 -105 -25 -6 -74 -17 -110 -25 -101 -24 -140 -29 -140 -17 0 30
198 109 435 172 146 40 573 143 695 169 44 9 156 34 235 51 22 5 72 15 110 24
67 14 174 37 260 56 22 5 83 16 135 25 52 9 113 20 135 25 22 5 85 16 140 25
55 8 125 20 155 25 30 6 87 14 125 19 161 21 591 89 805 127 47 8 132 21 190
29 184 26 232 34 238 39 3 3 17 6 32 6 18 0 31 -9 43 -29z m6584 20 c47 -9
181 -33 293 -51 30 -5 96 -16 145 -24 106 -18 359 -59 500 -80 55 -9 129 -20
165 -26 36 -5 112 -17 170 -25 145 -22 252 -40 515 -90 196 -37 379 -74 450
-90 33 -7 94 -21 135 -30 41 -9 91 -20 110 -25 19 -5 116 -28 215 -50 186 -43
320 -78 415 -106 236 -72 460 -159 468 -182 5 -17 -35 -15 -111 4 -102 26
-128 32 -212 49 -44 9 -127 27 -185 40 -58 14 -139 31 -180 40 -41 9 -93 20
-115 25 -22 5 -74 16 -115 25 -41 9 -93 20 -115 25 -41 9 -144 30 -275 56 -41
8 -91 19 -110 24 -19 5 -75 16 -125 24 -49 9 -108 20 -130 25 -22 6 -85 17
-140 26 -55 9 -122 20 -150 25 -54 11 -361 59 -540 85 -60 9 -132 20 -160 25
-27 5 -99 16 -160 25 -291 42 -611 99 -760 137 -44 11 -95 22 -112 25 -40 6
-43 30 -11 73 24 33 44 36 125 21z m-6452 -301 c7 -12 -119 -204 -257 -391
-87 -118 -408 -545 -435 -579 -13 -15 -97 -132 -133 -185 -12 -16 -58 -80
-103 -140 -109 -148 -275 -382 -442 -625 -138 -202 -323 -442 -374 -487 -14
-12 -28 -20 -33 -17 -26 16 8 103 85 219 22 33 102 160 177 281 76 122 167
262 202 310 69 96 258 366 353 504 32 47 133 189 225 315 91 127 188 261 215
300 66 93 206 267 269 334 64 67 201 171 226 171 10 0 22 -5 25 -10z m6315
-45 c68 -45 180 -161 276 -285 63 -81 596 -820 689 -955 80 -115 123 -178 181
-261 116 -167 470 -755 485 -805 13 -41 6 -73 -14 -67 -13 5 -178 231 -741
1023 -129 182 -255 357 -279 390 -117 159 -272 365 -468 625 -248 328 -274
365 -264 380 12 20 63 3 135 -45z m-291 -264 c12 -35 21 -87 21 -116 0 -28 5
-76 10 -106 11 -58 22 -137 45 -319 7 -63 19 -146 25 -185 10 -66 20 -142 56
-400 8 -60 19 -159 24 -220 10 -112 26 -240 35 -285 3 -14 10 -68 15 -120 5
-52 18 -162 29 -245 10 -82 26 -231 35 -330 9 -99 21 -223 26 -275 5 -52 13
-167 16 -256 7 -156 2 -234 -15 -234 -13 0 -29 44 -36 96 -3 27 -10 69 -15 94
-5 25 -16 113 -25 195 -8 83 -20 186 -25 230 -5 44 -16 141 -25 215 -8 74 -20
173 -25 220 -6 47 -15 128 -20 180 -5 52 -17 154 -25 225 -9 72 -20 166 -25
210 -6 44 -17 143 -25 220 -8 77 -19 181 -25 230 -5 50 -17 153 -25 230 -26
234 -34 305 -51 430 -17 133 -34 385 -27 398 10 16 31 -18 52 -82z m-5777 -37
c-2 -54 -8 -139 -13 -189 -5 -49 -14 -147 -19 -217 -5 -70 -13 -153 -19 -185
-5 -32 -15 -116 -21 -188 -6 -71 -21 -213 -32 -315 -30 -275 -47 -434 -57
-541 -6 -53 -12 -107 -16 -120 -3 -13 -9 -71 -14 -129 -6 -58 -19 -175 -30
-260 -11 -85 -27 -227 -36 -315 -9 -88 -20 -184 -25 -214 -6 -30 -10 -71 -10
-91 0 -31 -19 -132 -49 -255 -4 -16 -13 -30 -21 -30 -29 0 -25 152 15 565 8
85 21 214 30 285 8 72 19 177 25 235 5 58 17 155 25 215 9 61 20 151 25 200
14 150 80 673 115 920 8 55 21 156 30 225 31 250 61 456 71 493 3 10 11 16 17
14 8 -3 11 -34 9 -103z"/>
</g>
</svg>
